<svg xmlns="http://www.w3.org/2000/svg" xmlns:xlink="http://www.w3.org/1999/xlink" viewBox="0 0 101 81" fill="#fff"
    fill-rule="evenodd" stroke="#000" stroke-linecap="round" stroke-linejoin="round">
    <use xlink:href="#A" x=".5" y=".5" />
    <symbol id="A" overflow="visible">
        <path
            d="M79.412 43.45a5.23 5.23 0 0 0 5.228-5.228 5.23 5.23 0 0 0-5.228-5.228c-1.886 0-3.524 1.008-4.444 2.504L25.794 20.472l.022-.224a5.23 5.23 0 0 0-5.228-5.228 5.23 5.23 0 0 0-5.228 5.228c0 2.716 2.078 4.922 4.724 5.178l5.612 35.454c-1.85.806-3.146 2.646-3.146 4.792a5.23 5.23 0 0 0 5.228 5.228 5.23 5.23 0 0 0 5.228-5.228c0-.42-.062-.824-.156-1.216l42.72-22.712c.956 1.042 2.316 1.706 3.842 1.706zM31.62 62.15c-.848-.924-2.018-1.528-3.338-1.656L22.67 25.04a5.24 5.24 0 0 0 2.362-2.068l49.174 15.026c-.004.076-.022.148-.022.224 0 .42.062.824.156 1.216L31.62 62.15zM29.28 54h13.41L48 51.176v-5.15l-19.984-.012L29.28 54zM44 76H10V54h12.582l-1.264-7.99L6 46v34h42V58.668l-4 2.126V76zm14-30.14l4-2.126V36.36l-4-1.222V45.86zM58 18v10.222l4 1.222V26h34v22H68.066l-7.524 4H100V18.026L58 18zM42 30.248l-4-1.222V30H25.482l.632 4H42v-3.752zM18.784 30H4V8h34v14.11l4 1.222V.026L0 0v34h19.416l-.632-4z"
            fill="#0072c6" stroke="none" />
    </symbol>
</svg>