<svg xmlns="http://www.w3.org/2000/svg" id="cardVisual" width="120" height="120" viewBox="0 0 20 20">

        <path d="M9.62793 3.49609L2.5 13H1.50391V16.5039H18.4961V3.49609H9.62793Z" fill="#FAFAFA"></path>
        <path d="M2.00195 13V15.9961H17.998V4.00391H9.24707L10 3H19V17H1V13H2.00195Z" fill="#3A3A38"></path>
        <path d="M17.002 15H2.99805V14.0039H17.002V15Z" fill="#797774"></path>
        <path d="M5.21484 9.38021L5.98633 8.35156V12.8809H5.21484V9.38021Z" fill="#1E8BCD"></path>
        <path d="M10.3027 7.01172C10.5241 7.22656 10.6348 7.5293 10.6348 7.91992C10.6348 8.31055 10.5371 8.6556 10.3418 8.95508C10.1465 9.25456 9.81445 9.57031 9.3457 9.90234C8.9681 10.1888 8.66211 10.4362 8.42773 10.6445C8.18685 10.8464 8.0013 11.0417 7.87109 11.2305C7.73438 11.4193 7.64323 11.6178 7.59766 11.8262C7.54557 12.028 7.51953 12.2689 7.51953 12.5488V12.8809H11.6797V12.1875H8.33008C8.33008 12.0768 8.33984 11.9759 8.35938 11.8848C8.3724 11.7871 8.39844 11.696 8.4375 11.6113C8.47656 11.5267 8.52214 11.4486 8.57422 11.377C8.6263 11.2988 8.70443 11.2142 8.80859 11.123C8.90625 11.0254 9.04297 10.9115 9.21875 10.7812C9.39453 10.6445 9.62891 10.472 9.92188 10.2637C10.2018 10.0618 10.4395 9.86979 10.6348 9.6875C10.8236 9.4987 10.9766 9.3099 11.0938 9.12109C11.2109 8.93229 11.2956 8.73698 11.3477 8.53516C11.3932 8.32682 11.416 8.09896 11.416 7.85156C11.416 7.57812 11.3704 7.33073 11.2793 7.10938C11.1882 6.88151 11.0579 6.68945 10.8887 6.5332C10.7194 6.37044 10.5176 6.24674 10.2832 6.16211C10.0423 6.07747 9.77865 6.03516 9.49219 6.03516C9.09505 6.03516 8.76302 6.09375 8.49609 6.21094C8.22917 6.32161 7.99154 6.48112 7.7832 6.68945V7.50977C8.01107 7.26237 8.26823 7.0638 8.55469 6.91406C8.84115 6.76432 9.12109 6.68945 9.39453 6.68945C9.77214 6.68945 10.0749 6.79688 10.3027 7.01172Z" fill="#1E8BCD"></path>
        <path d="M16.543 11.8066C16.6536 11.5592 16.709 11.2826 16.709 10.9766C16.709 10.7617 16.6699 10.5632 16.5918 10.3809C16.5137 10.1921 16.4062 10.0293 16.2695 9.89258C16.1263 9.74935 15.957 9.63542 15.7617 9.55078C15.5664 9.45964 15.3516 9.39779 15.1172 9.36523V9.35547C16.0156 9.10156 16.4648 8.5319 16.4648 7.64648C16.4648 7.4056 16.4193 7.1875 16.3281 6.99219C16.237 6.79688 16.11 6.6276 15.9473 6.48438C15.778 6.34115 15.5794 6.23047 15.3516 6.15234C15.1237 6.07422 14.873 6.03516 14.5996 6.03516C14.0007 6.03516 13.4896 6.16536 13.0664 6.42578V7.16797C13.4831 6.84896 13.929 6.68945 14.4043 6.68945C15.2507 6.68945 15.6738 7.07031 15.6738 7.83203C15.6738 8.65885 15.1204 9.07227 14.0137 9.07227H13.4863V9.72656H14.043C15.293 9.72656 15.918 10.166 15.918 11.0449C15.918 11.4486 15.778 11.7676 15.498 12.002C15.2116 12.2298 14.834 12.3438 14.3652 12.3438C13.7728 12.3438 13.2552 12.1647 12.8125 11.8066V12.6367C13.1901 12.8776 13.6979 12.998 14.3359 12.998C14.6875 12.998 15.0098 12.9492 15.3027 12.8516C15.5892 12.7539 15.8398 12.6172 16.0547 12.4414C16.263 12.2656 16.4258 12.054 16.543 11.8066Z" fill="#1E8BCD"></path>
        <path d="M0.693359 11.5039L2.69531 5.49805H0.810547L3.31055 0.498047H7.99805L5 4.50195H7.00195L1.74805 11.5039H0.693359Z" fill="#F8DB8F"></path>
        <path d="M9.00391 0L5.99609 4.00391H7.99805L2.00195 12.002H0L2.00195 5.99609H0L2.99805 0H9.00391ZM1.50391 10.9961L5.99609 5H4.00391L7.00195 0.996094H3.61328L1.62109 5H3.38867L1.38672 10.9961H1.50391Z" fill="#DE6C00"></path>
    
        
</svg>