<svg xmlns="http://www.w3.org/2000/svg" id="donut" width="120" height="120" viewBox="0 0 20 20">

        
        <defs>
            <style>#donut .cls-1{opacity:1 !important;fill:#4d82b8;}#donut .cls-2{fill:#eac282;}#donut .cls-3{fill:#8baed1;}#donut .cls-4{fill:none;}</style>
        </defs>
        <path class="cls-1 fwns" d="M5.3,11.65A4.9,4.9,0,0,1,6.46,6.47L4.06,3.38a8.88,8.88,0,0,0-2.28,10Z"></path>
        <path class="cls-2 fwns" d="M14.55,8l3.74-1.14A8.92,8.92,0,0,0,13.87,2L12.41,5.65A5.05,5.05,0,0,1,14.55,8Z"></path>
        <path class="cls-1 fwns" d="M14.92,9.16a4.86,4.86,0,0,1-1.57,4.54l2.25,3.22A8.74,8.74,0,0,0,18.65,8Z"></path>
        <path class="cls-1 fwns" d="M12.32,14.4a4.94,4.94,0,0,1-6.48-1.63l-3.5,1.75a8.87,8.87,0,0,0,12.23,3.1Z"></path>
        <path class="cls-3 fwns" d="M10,5a5,5,0,0,1,1.26.18l1.46-3.65A8.89,8.89,0,0,0,5,2.61L7.46,5.72A5,5,0,0,1,10,5Z"></path>
        <rect class="cls-4 nfwns" width="20" height="20"></rect>
    
</svg>