<svg xmlns="http://www.w3.org/2000/svg" id="heatMap" width="120" height="120" viewBox="0 0 20 20">

        

        <defs>
            <style>#heatMap .cls-1{opacity:1 !important;fill:#959595;}#heatMap .cls-2{fill:#4d82b8;}#heatMap .cls-3{fill:#d2e2dd;}#heatMap .cls-4{fill:#f1ef8c;}#heatMap .cls-5{fill:#848484;opacity:0.5;}#heatMap .cls-6{fill:#ecba66;}#heatMap .cls-7{fill:#d86344;}#heatMap .cls-8{fill:none;}</style>
        </defs>
        <rect class="cls-1 fwns" x="1" y="1" width="18" height="18"></rect>
        <rect class="cls-2 fwns" x="2" y="2" width="16" height="16"></rect>
        <path class="cls-3 fwns" d="M2,18H12.13a8.52,8.52,0,0,1,.59-3.48c.8-1.6,4.44-4,4.44-7.12C17.16,5,15.39,3,14.22,2H2Z"></path>
        <path class="cls-4 fwns" d="M6.48,4.36A6.2,6.2,0,0,1,7.07,8c-.49,1.91-1,3.33-.73,4.47A2.79,2.79,0,0,0,8.7,14.7,2.77,2.77,0,0,0,11,13.4a6.19,6.19,0,0,1,1.55-2.2c1-.76,3.17-1.67,3.61-3.8A4.83,4.83,0,0,0,14.3,2H6.06A5.76,5.76,0,0,0,6.48,4.36Z"></path>
        <path class="cls-4 fwns" d="M3.92,13.8A3.51,3.51,0,0,0,2,14.56V18H6.22a5.93,5.93,0,0,0-.12-2.17A2.67,2.67,0,0,0,3.92,13.8Z"></path>
        <path class="cls-5 fwns" d="M7,5.61c.43.5.94,1,1.45,1.5L2,11.09v.47L4.5,10a38.08,38.08,0,0,0,.94,4.83A28.09,28.09,0,0,0,6.51,18h.43a28.07,28.07,0,0,1-1.11-3.25,36.94,36.94,0,0,1-1-4.93H4.81L8.75,7.4c1.3,1.23,2.54,2.22,2.56,2.24l.25-.31a40.6,40.6,0,0,1-4.25-4A9,9,0,0,1,5.55,2H5.12A9.39,9.39,0,0,0,7,5.61Z"></path>
        <path class="cls-6 fwns" d="M4.39,14.85A1.62,1.62,0,0,0,3,16.41c0,.78.36,1.6,1.32,1.52,1.3-.1,1.7-.9,1.53-1.77A1.42,1.42,0,0,0,4.39,14.85Z"></path>
        <path class="cls-6 fwns" d="M8.45,5c.29,1.37,1.25,2.42.87,3.17s-1.78.84-2,2.22c-.19,1,.72,2.77,2.1,2.78a2.53,2.53,0,0,0,2.52-1.75c.32-.69.58-1.95,1.27-2.48S15.73,8,15.73,6.5c0-1.65-1.33-3-2-3.77A2.66,2.66,0,0,0,12.45,2H10A2.48,2.48,0,0,0,8.45,5Z"></path>
        <path class="cls-5 fwns" d="M14.27,7.68A25.21,25.21,0,0,1,10.87,10a29.48,29.48,0,0,1-2.68,1.24c-.72.3-1.46.62-2.25,1-1.07.5-2.63,1.36-3.95,2.11v.46c1.35-.77,3-1.68,4.12-2.21.78-.37,1.52-.68,2.23-1a29.79,29.79,0,0,0,2.71-1.26A25.55,25.55,0,0,0,14.53,8a.2.2,0,1,0-.25-.31Z"></path>
        <path class="cls-7 fwns" d="M9.83,3.33c-.93,1-.24,2.41.48,3.23a3.29,3.29,0,0,0,2.83,1c1.12-.15,2.07-.65,2.17-1.6S14.85,4.3,13.62,4C12,3.58,11,2.07,9.83,3.33Z"></path>
        <path class="cls-7 fwns" d="M11.37,9.77c-.5-.82-3.17-.23-3.57.87-.3.81,1.1,1.87,2.27,1.65A1.69,1.69,0,0,0,11.37,9.77Z"></path>
        <rect class="cls-8 nfwns" width="20" height="20"></rect>
    
    
</svg>