<svg xmlns="http://www.w3.org/2000/svg" id="esriVisual" width="120" height="120" viewBox="0 0 20 20">

        
        <defs>
            <style>#esriVisual .cls-1{opacity:1 !important;fill:#0179c2;}#esriVisual .cls-2{fill:#2bab42;}#esriVisual .cls-3{fill:#b3b3b3;}#esriVisual .cls-4{fill:none;}</style>
        </defs>
        <circle class="cls-1 fwns" cx="10" cy="10" r="7.14"></circle>
        <path class="cls-2 fwns" d="M2.86,10A7.46,7.46,0,0,0,3,11.49a1.35,1.35,0,0,1,.61.68c.45,1.4,1.28,1.59,2,2.11a8.34,8.34,0,0,1,1.65,2.34,7.06,7.06,0,0,0,2.64.52c0-1.19-.07-3-.53-3.69s-2-.64-3.06-.76-1.27-.83-1.72-1.47.18-2.36.83-2.93A8.1,8.1,0,0,0,7.9,5.22c.2-.66-.39-1.2-1.09-1.6A7.13,7.13,0,0,0,2.86,10Z"></path>
        <path class="cls-2 fwns" d="M14.43,4.4c-1.16.46-2.72,1.18-3,2-.4,1-.57,2.17.12,2.81s1.91.43,2.42,1c.71.83.34,2.26.9,3.12a3.65,3.65,0,0,0,.88,1A7.12,7.12,0,0,0,14.43,4.4Z"></path>
        <path class="cls-3 fwns" d="M10,.48A9.52,9.52,0,1,0,19.52,10,9.52,9.52,0,0,0,10,.48Zm7.69,13.33a17.13,17.13,0,0,0-2.46.29c-.09-.76-.21-1.6-.35-2.45a26.73,26.73,0,0,1,3.58-.3,8.88,8.88,0,0,1-.77,2.42ZM12,14.89a10.43,10.43,0,0,0-2.4,1.22c-.4-.61-.82-1.32-1.23-2.06a13.09,13.09,0,0,1,2.76-1.48A17.35,17.35,0,0,1,14,11.81c.15.87.26,1.7.35,2.47a18.54,18.54,0,0,0-2.31.57Zm2.41.33c.11,1,.15,1.74.18,2a8.67,8.67,0,0,1-3.31,1.23c-.2-.26-.62-.83-1.15-1.6a9.47,9.47,0,0,1,2.19-1.13,16.9,16.9,0,0,1,2.11-.59ZM7.14,18.1a8.74,8.74,0,0,1-2.23-1.2,26.29,26.29,0,0,1,2.71-2.34c.41.75.83,1.45,1.23,2.07A17,17,0,0,0,7.14,18.1ZM6,6.81A14.43,14.43,0,0,1,8.2,5.71a17.27,17.27,0,0,1,3.48-.82,16.9,16.9,0,0,1,1.13,2.25,20.27,20.27,0,0,0-3.75,1A15.45,15.45,0,0,0,6.51,9.52,25,25,0,0,1,6,6.81Zm-.26,3.25A25.3,25.3,0,0,0,2.1,13.23a8.5,8.5,0,0,1-.63-3A25.66,25.66,0,0,1,5.1,7.39,27.14,27.14,0,0,0,5.71,10.06Zm0-7.47A8.5,8.5,0,0,1,9.17,1.47,24.1,24.1,0,0,1,11.08,4a18,18,0,0,0-3.25.81,13.88,13.88,0,0,0-2,1A24.59,24.59,0,0,1,5.71,2.59ZM18.57,10v.35a28.64,28.64,0,0,0-3.81.31A25.47,25.47,0,0,0,14.13,8h0a30.53,30.53,0,0,1,4.17-.27A8.54,8.54,0,0,1,18.57,10ZM13.81,7A15.78,15.78,0,0,0,12.7,4.76a33,33,0,0,1,4-.15,8.71,8.71,0,0,1,1.23,2.08A31.94,31.94,0,0,0,13.77,7ZM12.16,3.9A26.5,26.5,0,0,0,10.4,1.46a8.5,8.5,0,0,1,5.36,2.23A31,31,0,0,0,12.16,3.9ZM9.4,9.08a20,20,0,0,1,3.73-1v.14a24.75,24.75,0,0,1,.6,2.6,18.64,18.64,0,0,0-3,.81,14.15,14.15,0,0,0-2.85,1.51,21.19,21.19,0,0,1-1-2.12c-.06-.19-.13-.38-.19-.58A13,13,0,0,1,9.4,9.08ZM4.76,3.24A28.4,28.4,0,0,0,5,6.3,25.21,25.21,0,0,0,1.52,8.88,8.56,8.56,0,0,1,4.76,3.24ZM2.51,14.16A25.18,25.18,0,0,1,6,11l.11.33a21.43,21.43,0,0,0,1,2.35,24.89,24.89,0,0,0-2.95,2.58A8.84,8.84,0,0,1,2.51,14.16Zm5.72,4.22c.27-.25.66-.59,1.13-.95.32.46.58.84.8,1.14H10a8.34,8.34,0,0,1-1.8-.19Zm7.27-1.8c0-.4-.07-.95-.14-1.57.7-.11,1.31-.19,1.78-.24a8.61,8.61,0,0,1-1.65,1.81Z"></path>
        <rect class="cls-4 nfwns" width="20" height="20"></rect>
    
</svg>