<svg xmlns="http://www.w3.org/2000/svg" id="map" width="120" height="120" viewBox="0 0 20 20">

       
        <defs>
            <style>#map .cls-1{opacity:1 !important;fill:#fff;}#map .cls-2{fill:#7fad9e;}#map .cls-3{fill:#4f83b9;}#map .cls-4{fill:none;}</style>
        </defs>
        <circle class="cls-1 nfws" cx="9.5" cy="9.5" r="8"></circle>
        <path class="cls-2 fwns" d="M17.5,9.9V9.1H13.89a14.61,14.61,0,0,0-.51-3.56A14.74,14.74,0,0,0,16,4.82a8,8,0,0,0-.53-.66,14.78,14.78,0,0,1-2.31.6C12.34,2.55,11,1.1,9.5,1.1S6.66,2.55,5.87,4.77a14.78,14.78,0,0,1-2.31-.6A8,8,0,0,0,3,4.82a14.74,14.74,0,0,0,2.6.72A14.61,14.61,0,0,0,5.11,9.1H1.5v.8H5.11a14.61,14.61,0,0,0,.51,3.56,14.74,14.74,0,0,0-2.6.72,8,8,0,0,0,.53.66,14.77,14.77,0,0,1,2.31-.6C6.66,16.45,8,17.9,9.5,17.9s2.84-1.45,3.63-3.67a14.77,14.77,0,0,1,2.31.6,8,8,0,0,0,.53-.66,14.74,14.74,0,0,0-2.6-.72,14.61,14.61,0,0,0,.51-3.56Zm-8-8c1,0,2.11,1.13,2.82,3a20.33,20.33,0,0,1-2.82.2,20.33,20.33,0,0,1-2.82-.2C7.39,3,8.48,1.9,9.5,1.9ZM6.42,5.67A21.26,21.26,0,0,0,9.5,5.9a21.26,21.26,0,0,0,3.08-.23,13.54,13.54,0,0,1,.51,3.43H5.91A13.54,13.54,0,0,1,6.42,5.67ZM9.5,17.1c-1,0-2.11-1.13-2.82-3a20.33,20.33,0,0,1,2.82-.2,20.33,20.33,0,0,1,2.82.2C11.61,16,10.52,17.1,9.5,17.1Zm3.08-3.77A21.26,21.26,0,0,0,9.5,13.1a21.26,21.26,0,0,0-3.08.23A13.54,13.54,0,0,1,5.91,9.9h7.18A13.54,13.54,0,0,1,12.58,13.33Z"></path>
        <path class="cls-3 fwns" d="M9.5,1.9A7.6,7.6,0,1,1,1.9,9.5,7.61,7.61,0,0,1,9.5,1.9m0-.8a8.4,8.4,0,1,0,8.4,8.4A8.4,8.4,0,0,0,9.5,1.1Z"></path>
        <rect class="cls-4 nfwns" width="20" height="20"></rect>
   
</svg>