<svg xmlns="http://www.w3.org/2000/svg" id="pythonImageVisual" width="120" height="120" viewBox="0 0 20 20">

        
        <defs>
            <style>#pythonImageVisual .cls-1{opacity:1 !important;fill:#fff072;}#pythonImageVisual .cls-2{fill:none;}</style>
        </defs>
        <path class="cls-1 fwns" d="M3.78,10.89V15H1.3V3.09H5.4q4.5,0,4.5,3.79a3.64,3.64,0,0,1-1.29,2.9,5.11,5.11,0,0,1-3.45,1.11Zm0-5.74V8.86H4.93Q7.07,8.86,7.08,7T4.93,5.15Z"></path>
        <path class="cls-1 fwns" d="M19,6.09l-3.25,8.64q-1.17,3.12-3.53,3.12a4.52,4.52,0,0,1-1.48-.2v-2a2.08,2.08,0,0,0,1.07.29,1.34,1.34,0,0,0,1.33-.9l.42-1-3.25-8h2.73L14.57,11A6.29,6.29,0,0,1,14.79,12h0A7.48,7.48,0,0,1,15.08,11l1.51-4.88Z"></path>
        <rect class="cls-2 nfwns" width="20" height="20"></rect>
    
</svg>