<svg xmlns="http://www.w3.org/2000/svg" id="qna" width="120" height="120" viewBox="0 0 20 20">

        
        <defs>
            <style>.cls-1,.cls-2,#qna .cls-3{fill:none;}#qna .cls-2{stroke:#4d82b8;}.cls-2,#qna .cls-3{stroke-miterlimit:10;}#qna .cls-3{stroke:#bebebe;opacity:0.8;}.cls-3,#qna .cls-6{isolation:isolate;}#qna .cls-4{clip-path:url(#clip-path);}#qna .cls-5{fill:#f3f2f1;}#qna .cls-6{fill:#bebebe;}#qna .cls-7{fill:#dbdbdb;}#qna .cls-8{fill:#eec978;}</style>
            <clipPath id="clip-path">
                <rect class="cls-1 fwns" x="11.86" y="8.61" width="7.14" height="4.72"></rect>
            </clipPath>
        </defs>
        <polygon class="cls-2 fwns" points="17.5 11.83 11.86 11.83 8.37 11.83 5.67 14.56 5.67 11.83 2.5 11.83 2.5 2.5 17.5 2.5 17.5 11.83"></polygon>
        <polygon class="cls-3 nfwns" points="18.5 12.83 8.79 12.83 4.74 16.92 4.68 12.83 1.5 12.83 1.5 1.5 18.5 1.5 18.5 12.83"></polygon>
        <g class="cls-4 fwns">
            <path class="cls-5 fwns" d="M13.16,16.74a2,2,0,0,1,.4.65,2,2,0,0,1,.13.75h5.48a2,2,0,0,1,.54-1.41,5.7,5.7,0,0,0,1-1.45A4.27,4.27,0,0,0,21,13.57a4.46,4.46,0,0,0-.36-1.78,4.43,4.43,0,0,0-2.43-2.43,4.61,4.61,0,0,0-3.57,0,4.48,4.48,0,0,0-2.42,2.42,4.47,4.47,0,0,0-.36,1.79,4.27,4.27,0,0,0,.33,1.71A5.54,5.54,0,0,0,13.16,16.74Z"></path>
        </g>
        <path class="cls-6 fwns" d="M17.14,18.57H15.71V17.14H14.29v1.43a1.26,1.26,0,0,0,.11.55,1.31,1.31,0,0,0,.3.46,1.62,1.62,0,0,0,.46.31,1.5,1.5,0,0,0,.55.11h1.43a1.47,1.47,0,0,0,.56-.11,1.57,1.57,0,0,0,.45-.31,1.39,1.39,0,0,0,.31-.45,1.47,1.47,0,0,0,.11-.56V17.14H17.14Z"></path>
        <rect class="cls-7 nfwns" x="15.71" y="17.14" width="1.43" height="1.43"></rect>
        <path class="cls-8 fwns" d="M13.87,16.05a1.41,1.41,0,0,1,.32.51,1.76,1.76,0,0,1,.1.58h4.28A1.56,1.56,0,0,1,19,16a4.57,4.57,0,0,0,.74-1.13A3.41,3.41,0,0,0,20,13.57a3.45,3.45,0,0,0-.28-1.39,3.49,3.49,0,0,0-1.9-1.9,3.62,3.62,0,0,0-2.79,0,3.54,3.54,0,0,0-1.89,1.89,3.47,3.47,0,0,0-.28,1.4,3.41,3.41,0,0,0,.26,1.34A4.31,4.31,0,0,0,13.87,16.05Z"></path>
    
</svg>