<svg xmlns="http://www.w3.org/2000/svg" id="ribbon" width="120" height="120" viewBox="0 0 20 20">

        
        <defs>
            <style>#ribbon .cls-1{opacity:1 !important;fill:none;}#ribbon .cls-2{fill:gray;}.cls-3,#ribbon .cls-8{fill:#eca56b;}.cls-4,#ribbon .cls-5{fill:#8badd0;}.cls-4,.cls-6,#ribbon .cls-8{opacity:0.75;}.cls-6,#ribbon .cls-7{fill:#f2dab4;}</style>
        </defs>
        <rect class="cls-1 nfwns" width="20" height="20"></rect>
        <polygon class="cls-2 fwns" points="2 18 2 1 1 1 1 19 19 19 19 18 2 18"></polygon>
        <rect class="cls-3 fwns" x="15" y="14" width="3" height="4"></rect>
        <path class="cls-4 fwns" d="M6,15V11c1.38,0,1.48,3.5,3,3.5V18C7.35,17.93,7.4,15.12,6,15Z"></path>
        <rect class="cls-3 fwns" x="3" y="15" width="3" height="3"></rect>
        <rect class="cls-3 fwns" x="9" y="10.5" width="3" height="4"></rect>
        <rect class="cls-5 fwns" x="3" y="11" width="3" height="4"></rect>
        <rect class="cls-5 fwns" x="9" y="14.5" width="3" height="3.5"></rect>
        <rect class="cls-5 fwns" x="15" y="10" width="3" height="4"></rect>
        <path class="cls-4 fwns" d="M15,14V10c-1.37.06-1.48,4.5-3,4.5V18C13.65,17.93,13.6,14.18,15,14Z"></path>
        <path class="cls-6 fwns" d="M6,6v5c1.38,0,1.48-.5,3-.5V5C7.35,5.07,7.4,5.88,6,6Z"></path>
        <path class="cls-6 fwns" d="M15,10V4c-1.37.06-1.48,1-3,1v5.5A20,20,0,0,0,15,10Z"></path>
        <rect class="cls-7 fwns" x="9" y="5" width="3" height="5.5"></rect>
        <rect class="cls-7 fwns" x="15" y="4" width="3" height="6"></rect>
        <rect class="cls-7 fwns" x="3" y="6" width="3" height="5"></rect>
        <path class="cls-8 fwns" d="M6,15v3c1.38,0,1.48-3.5,3-3.5v-4C7.35,10.57,7.4,14.88,6,15Z"></path>
        <path class="cls-8 fwns" d="M12,14.5v-4c1.38,0,1.48,3.5,3,3.5v4C13.35,17.93,13.4,14.62,12,14.5Z"></path>
    
    
</svg>