<svg xmlns="http://www.w3.org/2000/svg" id="scorecard" width="120" height="120" viewBox="0 0 20 20">

        <path fill="#FF00FF" d="M17.997,2H15V1H5v1H2.003C1.449,2,1,2.449,1,3.003v3.002C1,8.211,2.789,10,4.996,10h0.105,c0.339,1.67,1.514,3.028,3.065,3.642C7.461,14.191,7,15.038,7,16H6.501C5.672,16,5,16.672,5,17.501V19h10v-1.5,c0-0.828-0.671-1.5-1.5-1.5H13c0-0.962-0.461-1.809-1.166-2.358c1.551-0.614,2.726-1.972,3.065-3.642h0.105,C17.211,10,19,8.211,19,6.004V3.003C19,2.449,18.551,2,17.997,2z M14,2v1H6V2H14z M4.996,9C3.344,9,2,7.656,2,6.004L2.003,3H5v6,H4.996z M13.5,17c0.276,0,0.5,0.224,0.5,0.5V18H6v-0.499C6,17.225,6.225,17,6.501,17H13.5z M12,16H8c0-1.103,0.897-2,2-2,S12,14.897,12,16z M10,13c-2.206,0-4-1.794-4-4V4h8v5C14,11.206,12.206,13,10,13z M18,6.004C18,7.656,16.656,9,15.004,9H15V3h2.997,L18,3.003V6.004z"></path>
        <path fill="#FAFAFA" d="M10,13.5c-2.481,0-4.5-2.019-4.5-4.5V1.5h9V9C14.5,11.481,12.481,13.5,10,13.5z M10,13.5,c-1.378,0-2.5,1.121-2.5,2.5h5C12.5,14.621,11.379,13.5,10,13.5z"></path>
        <path fill="#83BEEC" d="M5.5,18.5v-0.999c0-0.552,0.449-1.001,1.001-1.001H13.5c0.552,0,1,0.448,1,1v1H5.5z M14.5,3.5v-2h-9v2H14.5z"></path>
        <path fill="#3A3A38" d="M17.997,2H15v1h2.997L18,3.003v3.002C18,7.656,16.656,9,15.004,9H15V4h-1v5c0,2.206-1.794,4-4,4,s-4-1.794-4-4V4H5v5H4.996C3.344,9,2,7.656,2,6.004L2.003,3H5V2H2.003C1.449,2,1,2.449,1,3.003v3.002C1,8.211,2.789,10,4.996,10,h0.105c0.339,1.67,1.514,3.028,3.065,3.642C7.461,14.191,7,15.038,7,16h1c0-1.103,0.897-2,2-2s2,0.897,2,2h1,c0-0.962-0.461-1.809-1.166-2.358c1.551-0.614,2.726-1.972,3.065-3.642h0.105C17.211,10,19,8.211,19,6.004V3.003,C19,2.449,18.551,2,17.997,2z"></path>
        <path fill="#0063B1" d="M13.5,17c0.276,0,0.5,0.224,0.5,0.5V18H6v-0.499C6,17.225,6.225,17,6.501,17H13.5 M13.5,16H6.501,C5.672,16,5,16.672,5,17.501V19h10v-1.5C15,16.671,14.329,16,13.5,16L13.5,16z M14,2v1H6V2H14 M15,1H5v3h10V1L15,1z"></path>
    
        
</svg>