<svg xmlns="http://www.w3.org/2000/svg" id="area" width="120" height="120" viewBox="0 0 20 20">

        
        <defs>
            <style>#area .cls-1{opacity:1 !important;fill:none;}#area .cls-2{fill:gray;}#area .cls-3{fill:#e78e46;}#area .cls-4{fill:#f2dab4;}#area .cls-5{fill:#a9c4d4;}#area .cls-6{fill:#fff}#area .cls-7{fill:none;};}</style>
        </defs>
        <rect class="cls-1 nfwns" width="20" height="20"></rect>
        <polygon class="cls-2 fwns" points="2 18 2 1 1 1 1 19 19 19 19 18 2 18"></polygon>
        <rect class="cls-3 nfwns" x="2" y="10" width="17" height="8"></rect>
        <polygon class="cls-4 nfws" points="2 5 6.88 7.44 14.63 2 19 4 19 11 2 11 2 5"></polygon>
        <polygon class="cls-5 fws" points="19 9.04 12.83 7.85 6.25 11.11 2 8.5 2 11.76 6.12 14.24 13.17 10.77 19 11.89 19 9.04"></polygon>
        <polygon class="cls-6 fwns" points="12.72 7.07 12.5 7.18 6.29 10.26 2 7.63 2 8.5 6.25 11.11 12.83 7.85 19 9.04 19 8.28 12.97 7.12 12.72 7.07"></polygon>
        <polygon class="cls-6 fwns" points="19 11.89 13.17 10.77 6.12 14.24 2 11.76 2 12.63 5.74 14.88 6.09 15.09 6.45 14.91 13.28 11.55 19 12.66 19 11.89"></polygon>
        <rect class="cls-7 nfwns" width="20" height="20"></rect>
    
</svg>