<svg viewBox="0 0 20 20" fill="none" id="data_histogram_function_20_regular" xmlns="http://www.w3.org/2000/svg">
    <path
        d="M8 5V16H10.3698C10.3633 16.0951 10.3575 16.1747 10.3527 16.236C10.3389 16.478 10.3055 16.7184 10.2527 16.955C10.2297 16.945 10.2027 16.933 10.1717 16.917C9.81589 16.7389 9.40393 16.7094 9.02642 16.8351C8.90536 16.8754 8.79022 16.9309 8.68366 17H3.5C3.22386 17 3 16.7761 3 16.5V11C3 9.89543 3.89543 9 5 9H7V5C7 3.89543 7.89543 3 9 3H11C12.1046 3 13 3.89543 13 5V6H15C16.1046 6 17 6.89543 17 8V13.8782L16.8155 14.063C16.601 13.746 16.3229 13.4785 16 13.277V8C16 7.44772 15.5523 7 15 7H13V8.06621C12.6414 8.14745 12.3029 8.29325 12 8.49447V5C12 4.44772 11.5523 4 11 4H9C8.44772 4 8 4.44772 8 5ZM7 16V10H5C4.44772 10 4 10.4477 4 11V16H7Z"
        fill="#000"></path>
    <path
        d="M13.4305 10.0172C13.6038 9.99265 13.7086 9.99735 13.7863 10.0129C13.8628 10.0282 13.9439 10.0601 14.064 10.1322C14.3008 10.2742 14.608 10.1974 14.75 9.96066C14.8921 9.72387 14.8153 9.41674 14.5785 9.27466C14.3974 9.16597 14.2073 9.07729 13.9824 9.03232C13.7593 8.98769 13.5333 8.99233 13.2863 9.02761L13.281 9.02843C12.7501 9.11012 12.3454 9.38387 12.0741 9.76999C11.8116 10.1436 11.6879 10.6001 11.6532 11.0511C11.6522 11.0639 11.6518 11.0767 11.6518 11.0895C11.6518 11.1648 11.6343 11.5214 11.6077 12.0173H10.5996C10.3235 12.0173 10.0996 12.2412 10.0996 12.5173C10.0996 12.7935 10.3235 13.0173 10.5996 13.0173H11.5522C11.4791 14.3068 11.3866 15.8422 11.352 16.2926C11.3208 16.6679 11.2932 16.9986 11.2008 17.2879C11.114 17.56 10.9809 17.7575 10.7548 17.8894L10.7417 17.8973C10.4843 18.0582 10.1536 18.0287 9.72372 17.8138C9.47673 17.6903 9.17639 17.7904 9.0529 18.0374C8.9294 18.2844 9.02951 18.5847 9.2765 18.7082C9.80926 18.9746 10.5603 19.1857 11.2652 18.7493C11.758 18.4594 12.015 18.0259 12.1535 17.5919C12.281 17.1923 12.3166 16.762 12.3448 16.4217L12.3487 16.3741L12.349 16.3709C12.3836 15.9204 12.4792 14.3373 12.5538 13.0173H13.5996C13.8758 13.0173 14.0996 12.7935 14.0996 12.5173C14.0996 12.2412 13.8758 12.0173 13.5996 12.0173H12.6089C12.6329 11.5648 12.6492 11.2281 12.6515 11.1129C12.6785 10.7874 12.7651 10.526 12.8923 10.3449C13.0123 10.1742 13.1795 10.0564 13.4305 10.0172Z"
        fill="#000"></path>
    <path
        d="M18.8536 14.8536C19.0488 14.6583 19.0488 14.3417 18.8536 14.1465C18.6583 13.9512 18.3417 13.9512 18.1464 14.1465L16.6094 15.6835C16.4021 15.3236 16.227 15.0212 16.1561 14.9047C16.0925 14.7824 16.0067 14.6328 15.8981 14.4923C15.7875 14.3491 15.6295 14.1839 15.4157 14.0802C15.4035 14.0742 15.391 14.0688 15.3784 14.0639C15.0576 13.9393 14.7638 14.0125 14.5457 14.1448C14.3483 14.2647 14.2008 14.438 14.1043 14.5628C13.9355 14.7813 13.9758 15.0953 14.1943 15.2641C14.4129 15.433 14.7269 15.3927 14.8957 15.1742C14.9318 15.1275 14.965 15.0885 14.9962 15.0571C15.0108 15.0424 15.0235 15.0309 15.0343 15.0219C15.0545 15.041 15.0789 15.0675 15.1068 15.1036C15.1675 15.1822 15.2242 15.2791 15.2759 15.3795C15.2818 15.391 15.2882 15.4024 15.2951 15.4134C15.3615 15.5209 15.6005 15.935 15.8771 16.4158L14.1464 18.1465C13.9512 18.3417 13.9512 18.6583 14.1464 18.8536C14.3417 19.0488 14.6583 19.0488 14.8536 18.8536L16.3935 17.3136C16.6149 17.698 16.8008 18.0189 16.8641 18.1214C16.9043 18.1863 16.9366 18.2415 16.9681 18.2955L16.9953 18.3417C17.0333 18.4063 17.0774 18.4799 17.1284 18.5494C17.2492 18.7139 17.3901 18.8298 17.594 18.9288C17.6311 18.9469 17.6704 18.9602 17.7109 18.9686C18.0117 19.031 18.2903 19.0052 18.5328 18.8419C18.6946 18.7329 18.8195 18.5628 18.8812 18.4789C18.8908 18.4657 18.899 18.4546 18.9055 18.4463C19.0743 18.2277 19.034 17.9137 18.8155 17.7449C18.5969 17.5761 18.2829 17.6164 18.1141 17.8349C18.0962 17.858 18.0779 17.8824 18.0626 17.9028L18.048 17.9222C18.0286 17.9479 18.0142 17.9665 18.0013 17.982C17.9952 17.9894 17.9902 17.9952 17.9861 17.9997L17.9762 17.9991C17.9697 17.9947 17.9654 17.9914 17.9626 17.9892C17.9565 17.9842 17.9487 17.977 17.9343 17.9574C17.9165 17.9332 17.8951 17.8991 17.8571 17.8345L17.8339 17.795C17.8018 17.7401 17.7619 17.6719 17.7147 17.5956C17.6478 17.4872 17.4054 17.0672 17.1258 16.5813L18.8536 14.8536Z"
        fill="#000"></path>
</svg>