<svg xmlns="http://www.w3.org/2000/svg" id="waterfall" width="120" height="120" viewBox="0 0 20 20">
        <defs>
            <style>#waterfall .cls-1{opacity:1 !important;fill:gray;}#waterfall .cls-2{fill:#bebebe;}#waterfall .cls-3{fill:#70a593;}#waterfall .cls-4{fill:#d66244;}#waterfall .cls-5{fill:none;}</style>
        </defs>
        <polygon class="cls-1 fwns" points="2 18 2 1 1 1 1 19 19 19 19 18 2 18"></polygon>
        <polygon class="cls-2 fwns" points="4 5 4 18 6 18 6 6 7 6 7 5 4 5"></polygon>
        <polygon class="cls-2 fwns" points="14 2 14 3 15 3 15 18 17 18 17 2 14 2"></polygon>
        <rect class="cls-3 fwns" x="12" y="2" width="2" height="13"></rect>
        <rect class="cls-4 fwns" x="7" y="5" width="2" height="5"></rect>
        <polygon class="cls-4 fwns" points="11 14 11 10 9 10 9 15 12 15 12 14 11 14"></polygon>
        <rect class="cls-5 nfwns" width="20" height="20"></rect>
</svg>