<svg width="40" height="40" xmlns="http://www.w3.org/2000/svg" fill="#e6e6e6"  
    viewBox="1468.3900000000003 328.29 36.51999999999953 44.51999999999998" preserveAspectRatio="xMidYMid meet">
        <path d="M1500.6 360.3l0.6 4.6-2.1-1 1.1 5.2-2.1-3.3-0.8-3.3-1.5-3.1-2.8-3.7-5.2-0.3 0.9 2.7-1.2 3.5-2.6-1.3-0.6 1.2-1.7-0.7-2.2-0.6-1.6-5.3-2.6-4.8 0.3-3.9-3.7-1.7 0.9-2.3 3-2.4-4.6-3.4 1.2-4.4 4.9 2.8 2.7 0.3 1.2 4.5 5.4 0.9 5.1-0.1 3.4 1.1-1.6 5.4-2.4 0.4-1.2 3.6 3.6 3.4 0.3-4.2 1.5 0 4.4 10.2z" id="BD" name="Bangladesh">
</path>
    </svg>