<svg width="40" height="40" xmlns="http://www.w3.org/2000/svg" fill="#e6e6e6"  
    viewBox="1090.31 609.3100000000002 65.27999999999997 70.67999999999995" preserveAspectRatio="xMidYMid meet">
        <path d="M1127.6 615.7l1.9 5.1 1.1 1.2 1.6 3.7 6.1 7 2.3 0.7-0.1 2.3 1.5 4.1 4.3 1 3.4 2.9-8.1 4.7-5.2 4.8-2 4.3-1.8 2.4-3 0.5-1.2 3.1-0.6 2-3.6 1.4-4.5-0.3-2.5-1.8-2.3-0.7-2.8 1.4-1.5 3.1-2.7 1.9-2.8 2.9-4 0.7-1.1-2.3 0.6-3.9-3-6.1-1.4-1 0.6-18.7 5.5-0.2 0.8-22.9 4.2-0.2 8.7-2.3 2 2.7 3.7-2.5 1.7 0 3.2-1.5 1 0.5z" id="BW" name="Botswana">
</path>
    </svg>