<svg width="40" height="40" xmlns="http://www.w3.org/2000/svg" fill="#e6e6e6"  
    viewBox="1093.9199999999996 139.82 53.75999999999976 38.559999999999974" preserveAspectRatio="xMidYMid meet">
        <path d="M1141.6 162.7l-3.9-0.2-0.8 0.6 1.5 2 2 4-4.1 0.3-1.3 1.4 0.3 3.1-2.1-0.6-4.3 0.3-1.5-1.5-1.7 1.1-1.9-0.9-3.9-0.1-5.7-1.5-4.9-0.5-3.8 0.2-2.4 1.6-2.3 0.3-0.5-2.8-1.9-2.8 2.8-1.3-0.4-2.4-1.7-2.3-0.6-2.7 4.7 0 4.8-2.3 0.5-3.4 3.6-2-1-2.7 2.7-1 4.6-2.3 5.3 1.5 0.9 1.5 2.4-0.7 4.8 1.4 1.1 2.9-0.7 1.6 3.8 4 2.1 1.1 0 1.1 3.4 1.1 1.7 1.6-1.6 1.3z" id="BY" name="Belarus">
</path>
    </svg>