<svg width="40" height="40" xmlns="http://www.w3.org/2000/svg" fill="#e6e6e6"  
    viewBox="1060.890000000001 422.99 87.71999999999912 71.61999999999995" preserveAspectRatio="xMidYMid meet">
        <path d="M1121.3 446.5l3.9 2.5 3.1 2.6 0.1 2.1 3.9 3.3 2.4 2.8 1.4 3.8 4.3 2.6 0.9 2-1.8 0.7-3.7-0.1-4.2-0.7-2.1 0.5-0.9 1.6-1.8 0.2-2.2-1.4-6.3 3.2-2.6-0.6-0.8 0.5-1.6 3.9-4.3-1.3-4.1-0.6-3.6-2.4-4.7-2.2-3 2.1-2.2 3.2-0.5 4.5-3.6-0.3-3.9-1.1-3.3 3.4-3 6-0.6-1.9-0.3-2.9-2.6-2.1-2.1-3.3-0.5-2.3-2.7-3.4 0.5-1.9-0.6-2.7 0.4-5 1.4-1.1 2.8-6.5 4.6-0.5 1-1.7 1 0.2 1.4 1.4 7.1-2.4 2.4-2.5 2.9-2.3-0.6-2.2 1.6-0.6 5.5 0.4 5.2-3 4-7 2.8-2.6 3.6-1.1 0.7 2.7 3.3 4 0 2.7-0.8 2.6 0.4 2 1.9 1.9 0.5 0.3z" id="CF" name="Central African Republic">
</path>
    </svg>