<svg width="40" height="40" xmlns="http://www.w3.org/2000/svg" fill="#e6e6e6"  
    viewBox="933.7299999999998 430.33000000000004 42.140000000000214 47.639999999999986" preserveAspectRatio="xMidYMid meet">
        <path d="M955.9 435.2l2.5 1.4 1 2.2 2.5 1.3 2-1.6 2.6-0.2 3.9 1.6 1.5 9.2-2.4 5.3-1.5 7.3 2.4 5.5-0.2 2.6-2.6 0-3.9-1.2-3.7 0-6.7 1.2-3.9 1.8-5.6 2.4-1.1-0.2 0.4-5.3 0.6-0.8-0.2-2.5-2.4-2.7-1.8-0.4-1.6-1.8 1.2-2.9-0.5-3.1 0.2-1.8 0.9 0 0.4-2.8-0.4-1.3 0.5-0.9 2.1-0.7-1.4-5.2-1.3-2.6 0.5-2.2 1.1-0.5 0.8-0.6 1.5 1 4.4 0 1-1.8 1 0.1 1.6-0.7 0.9 2.7 1.3-0.8 2.4-1z" id="CI" name="Côte d'Ivoire">
</path>
    </svg>