<svg width="40" height="40" xmlns="http://www.w3.org/2000/svg" fill="#e6e6e6"  
    viewBox="499.78000000000014 427.88000000000017 22.439999999999884 23.039999999999964" preserveAspectRatio="xMidYMid meet">
        <path d="M514.6 431.6l1.2 3.5 2 2.6 2.5 2.7-2.2 0.6-0.1 2.6 1.1 0.9-0.9 0.8 0.2 1.1-0.6 1.3-0.3 1.3-3-1.4-1.1-1.4 0.7-1.1-0.1-1.4-1.5-1.5-2.2-1.3-1.8-0.8-0.3-1.9-1.4-1.1 0.2 1.8-1.2 1.6-1.2-1.8-1.7-0.7-0.7-1.2 0.1-2 0.9-2-1.5-0.9 1.4-1.3 0.9-0.8 3.6 1.7 1.3-0.8 1.8 0.5 0.8 1.3 1.7 0.5 1.4-1.4z" id="CR" name="Costa Rica">
</path>
    </svg>