<svg width="40" height="40" xmlns="http://www.w3.org/2000/svg" fill="#e6e6e6"  
    viewBox="842.96 389.85999999999996 17.779999999999973 18.480000000000075" preserveAspectRatio="xMidYMid meet">
        <path class="Cape Verde" d="M 847.8 406.5 847.6 406.8 847.4 406.6 847.4 406.3 847.7 406.2 847.8 406.5 Z" id="CV">
</path><path class="Cape Verde" d="M 849.7 406.6 849.5 406.7 849.1 406.6 848.8 406.3 848.7 406 848.9 405.6 849.4 405.3 849.8 405.3 850 406 849.9 406.4 849.7 406.6 Z" id="CV">
</path><path class="Cape Verde" d="M 853.2 403.5 853.4 403.6 853.4 403.8 853.6 404 854 404.5 854.2 404.5 854.4 404.8 854.6 405.3 854.8 405.5 854.5 406 854.2 406.1 853.7 406 853.4 405.9 853.1 405.6 853.1 405.4 852.9 405.3 852.8 404.9 852.9 404.7 852.9 404.4 853.1 404 852.9 403.5 853.2 403.5 Z" id="CV">
</path><path class="Cape Verde" d="M 856.3 403.5 856.6 403.6 856.7 404.2 856.6 404.6 856.2 404.8 855.8 404.4 856 404 855.9 403.8 856.3 403.5 Z" id="CV">
</path><path class="Cape Verde" d="M 858.3 397.8 858.6 397.6 859.1 397.8 859.2 398 859.2 398.7 858.8 399 858.5 399.2 858.2 399.2 857.7 399 857.7 398.5 857.9 398.3 857.9 397.7 858 397.6 858.3 397.8 Z" id="CV">
</path><path class="Cape Verde" d="M 850.3 395 850.7 394.9 851 395.1 851.4 395.1 851.7 395.3 851.8 395.5 851.3 395.5 850.6 395.2 850.4 395.3 850.1 395.9 849.8 395.3 849.7 395.2 849.6 394.8 849.9 394.7 850.3 395 Z" id="CV">
</path><path class="Cape Verde" d="M 858.1 394.5 858.2 394.6 858.1 395.2 857.9 395.3 857.9 394.8 857.7 394.5 857.7 394.2 857.6 393.9 858 393.6 858.2 393.8 858.1 394.4 858.1 394.5 Z" id="CV">
</path><path class="Cape Verde" d="M 846.8 393.2 847 393.5 847.1 393.8 846.4 394.1 846.1 393.9 845.9 393.7 846.3 393.3 846.8 393.2 Z" id="CV">
</path><path class="Cape Verde" d="M 846 391.4 846.3 391.5 846.3 391.7 846.6 392 846.4 392.4 845.8 392.7 845.4 393.1 844.7 393.2 844.7 393.1 844.7 392.6 844.5 392.4 844.5 392.2 844.7 392 844.9 392 845.1 391.8 845.8 391.4 846 391.4 Z" id="CV">
</path>
    </svg>