<svg width="40" height="40" xmlns="http://www.w3.org/2000/svg" fill="#e6e6e6"  
    viewBox="1043.2000000000003 171.80000000000007 39.59999999999968 22.599999999999937" preserveAspectRatio="xMidYMid meet">
        <path d="M1059.7 175.2l2.5 2 3.7 0.5-0.2 1.7 2.8 1.3 0.6-1.6 3.4 0.7 0.7 2 3.7 0.3 2.6 3.1-1.5 0-0.7 1.1-1.1 0.3-0.2 1.4-0.9 0.3-0.1 0.6-1.6 0.6-2.2-0.1-0.6 1.4-2.4-1.2-2.3 0.3-4-1.9-1.7 0.5-2.6 2.6-3.8-2.1-3-2.6-2.6-1.5-0.7-2.7-1-1.8 3.4-1.3 1.7-1.6 3.5-1.2 1.1-1.2 1.3 0.7 2.2-0.6z" id="CZ" name="Czech Republic">
</path>
    </svg>