<svg width="40" height="40" xmlns="http://www.w3.org/2000/svg" fill="#e6e6e6"  
    viewBox="896.8899999999999 416.8899999999999 49.32000000000005 42.12000000000012" preserveAspectRatio="xMidYMid meet">
        <path d="M921.5 421.9l0.3 2.4 0.9 0 1.5-0.9 0.9 0.2 1.6 1.7 2.4 0.5 1.5-1.4 1.9-0.9 1.3-0.9 1.1 0.2 1.3 1.4 0.6 1.8 2.3 2.7-1.1 1.6-0.3 2.1 1.2-0.6 0.7 0.7-0.3 1.9 1.7 1.9-1.1 0.5-0.5 2.2 1.3 2.6 1.4 5.2-2.1 0.7-0.5 0.9 0.4 1.3-0.4 2.8-0.9 0-1.6-0.2-1.1 2.6-1.6 0-1.1-1.4 0.4-2.6-2.4-3.9-1.4 0.7-1.3 0.2-1.5 0.3 0.1-2.3-0.9-1.7 0.2-1.9-1.2-2.7-1.6-2.3-4.5 0-1.3 1.2-1.6 0.2-1 1.4-0.6 1.7-3.1 2.9-2.4-3.8-2.2-2.5-1.4-0.9-1.4-1.3-0.6-2.8-0.8-1.4-1.7-1.1 2.6-3.1 1.7 0.1 1.5-1 1.2-0.1 0.9-0.8-0.4-2.1 0.6-0.7 0.1-2.2 2.7 0.1 4.1 1.5 1.2-0.1 0.4-0.7 3.1 0.5 0.8-0.4z" id="GN" name="Guinea">
</path>
    </svg>