<svg width="40" height="40" xmlns="http://www.w3.org/2000/svg" fill="#e6e6e6"  
    viewBox="634.2399999999999 443.54000000000013 36.11999999999989 54.71999999999997" preserveAspectRatio="xMidYMid meet">
        <path d="M662.9 463.5l-1 5.8-3.5 1.6 0.3 1.5-1.1 3.4 2.4 4.6 1.8 0 0.7 3.6 3.3 5.6-1.3 0.3-3.2-0.6-1.8 1.7-2.6 1.1-1.8 0.3-0.6 1.3-2.8-0.3-3.5-3-0.3-3-1.4-3.3 1-5.4 1.6-2.3-1.2-3-2-0.9 0.8-2.9-1.2-1.4-3 0.2-3.7-4.8 1.6-1.8 0-3 3.5-1 1.4-1.2-1.8-2.4 0.5-2.3 4.7-3.8 3.6 2.4 3.3 4.1 0.1 3.4 2.1 0.1 3 3.1 2.1 2.3z" id="GY" name="Guyana">
</path>
    </svg>