<svg width="40" height="40" xmlns="http://www.w3.org/2000/svg" fill="#e6e6e6"  
    viewBox="480.88000000000005 395.5799999999998 42.23999999999995 26.44000000000011" preserveAspectRatio="xMidYMid meet">
        <path d="M519.6 405.5l-1.9-0.1-0.9 0.9-2 0.8-1.4 0-1.3 0.8-1.1-0.2-0.9-1-0.6 0.2-0.9 1.5-0.5-0.1-0.2 1.4-2.1 1.7-1.2 0.8-0.6 0.8-1.5-1.3-1.4 1.7-1.2 0-1.3 0.1-0.2 3.2-0.8 0-0.8 1.5-1.8 0.3-0.8-2-1.7-0.6 0.7-2.6-0.7-0.7-1.2-0.4-2.5 0.7-0.1-0.8-1.6-1.1-1.1-1.2-1.6-0.6 1.3-1.6-0.3-1.3 0.5-1.2 2.9-1.8 2.8-2.5 0.6 0.3 1.3-1.1 1.6-0.1 0.5 0.5 0.9-0.3 2.6 0.6 2.6-0.2 1.8-0.7 0.8-0.7 1.7 0.3 1.3 0.4 1.5-0.1 1.2-0.6 2.5 0.9 0.8 0.2 1.6 1.2 1.5 1.4 1.9 1 1.3 1.7z" id="HN" name="Honduras">
</path>
    </svg>