<svg width="40" height="40" xmlns="http://www.w3.org/2000/svg" fill="#e6e6e6"  
    viewBox="1171.97 459.97 58.059999999999945 78.36000000000001" preserveAspectRatio="xMidYMid meet">
        <path d="M1223.5 476.7l-4.9 7.2 0.2 23.4 3.3 5.3-4 2.6-1.4 2.7-2.2 0.4-0.8 4.6-1.9 2.6-1.1 4.2-2.3 2.1-8.1-6.4-0.3-3.7-20.5-13.1 0.4-4.7-1.4-2.5 0-0.3 1.6-2.6 2.8-4.2 2.1-4.7-2.6-7.4-0.7-3.2-2.7-4.5 3.4-3.8 3.8-4.2 2.9 1.1 0.1 3.6 1.9 2.1 4 0 7.2 5.4 1.8 0.1 1.3-0.2 1.3 0.7 3.8 0.6 1.6-2.7 5.2-2.7 2.3 2.2 3.9 0z" id="KE" name="Kenya">
</path>
    </svg>