<svg width="40" height="40" xmlns="http://www.w3.org/2000/svg" fill="#e6e6e6"  
    viewBox="1632.5099999999993 222.71000000000004 32.58000000000084 40.67999999999995" preserveAspectRatio="xMidYMid meet">
        <path d="M1660.3 229.9l1.4 1.1-2.2-0.4-1 2.2-0.3 2.1 2.8 4.6-1.9 1.4-0.3 1.1-0.9 1.9-2.9 1.1-1.4 1.7 1.3 2.7-0.3 0.7 2.6 1.1 4.4 2.8 0 1.5-2 0.4-3.6 0.4-0.6 2.8-2.5-0.2 0 0.6-3.2-1.2-0.1 1.2-1.3 0.5-0.7-1.2-1.7-0.6-1.9-1 0.1-2.8 0.9-0.8-1-1.1-0.4-3.5-0.9-1-3.4-0.7-3.4-1.7 2.1-4.1 3.9-3.4 1.1-4.6 3.6 2 4.6 0.3-2.8-3.4 6.4-2.7 0-3.6 5.5 3.8z" id="KP" name="Dem. Rep. Korea">
</path>
    </svg>