<svg width="40" height="40" xmlns="http://www.w3.org/2000/svg" fill="#e6e6e6"  
    viewBox="882.5899999999999 262.9900000000002 106.91999999999996 110.51999999999981" preserveAspectRatio="xMidYMid meet">
        <path d="M974.8 276l1.9 4.1 0.3 3.9 1.9 6.8 1.4 1.4-1 2.5-7.1 1.1-2.5 2.3-3.1 0.6-0.3 4.8-6.4 2.5-2.1 3.2-4.5 1.7-5.4 1-8.9 4.8-0.1 7.6-0.9 0 0.1 3.4-3.4 0.2-1.8 1.5-2.5 0-2-0.9-4.6 0.7-1.9 5-1.8 0.5-2.7 8.1-7.9 6.9-2 8.9-2.4 2.9-0.7 2.3-12.5 0.5-0.1 0 0.3-3 2.2-1.7 1.9-3.4-0.3-2.2 2-4.5 3.2-4.1 1.9-1 1.6-3.7 0.2-3.5 2.1-3.9 3.8-2.4 3.6-6.5 0.1-0.1 2.9-2.5 5.1-0.7 4.4-4.4 2.8-1.7 4.7-5.4-1.2-7.9 2.2-5.6 0.9-3.4 3.6-4.3 5.4-2.9 4.1-2.7 3.7-6.6 1.8-4 3.9 0.1 3.1 2.7 5.1-0.4 5.5 1.4 2.4 0z" id="MA" name="Morocco">
</path>
    </svg>