<svg width="40" height="40" xmlns="http://www.w3.org/2000/svg" fill="#e6e6e6"  
    viewBox="1403.5099999999995 152.6099999999998 201.48000000000047 99.08000000000021" preserveAspectRatio="xMidYMid meet">
        <path d="M1496.2 181.5l4-1.2 5.7-0.8 5.4 0.9 6.6 2.9 4.9 3.2 4.6 0 6.8 1 3.6-1.6 5.9-1 4.4-4.4 3.4 0.7 3.9 2.1 5.6-0.6 0.6 4.7 0.3 6.3 2.8 2.5 2.3-0.8 5.5 1 2.5-2.3 5.2 2 7.2 4.4 0.8 2.2-4.4-0.7-6.8 0.8-2.5 1.8-1.3 4.2-6.4 2.4-3.2 3.4-5.9-1.3-3.2-0.6-0.5 4.1 2.9 2.4 1.9 2.1-2.4 2.2-2 3.4-4.9 2.2-7.6 0.2-7.2 2.2-4.4 3.4-3.3-1.9-6.2 0-9.4-3.9-5.6-0.9-6.4 0.9-11.3-1.5-5.6 0.2-4.7-3.8-5-5.8-3.4-0.7-8-4-7.2-0.8-6.5-1.1-3-2.8-1.4-7.3-5.8-5.1-8.2-2.3-5.7-3.3-3.3-4.4 4.7-1.1 6.7-5.3 5.9-2.9 5.3 1.9 5.2 0.1 4.8 2.9 5 0.2 8 1.6 2.4-4.4-4-3.6 1.3-6.4 7 2.5 4.8 0.8 6.7 1.6 3.6 4.6 8.5 2.6z" id="MN" name="Mongolia">
</path>
    </svg>