<svg width="40" height="40" xmlns="http://www.w3.org/2000/svg" fill="#e6e6e6"  
    viewBox="1165.2399999999998 556.2399999999998 26.520000000000437 58.320000000000164" preserveAspectRatio="xMidYMid meet">
        <path d="M1182.3 588.9l0.4 0 1.9 2.1 2.2 4.6 0.1 8.3-2.5 1.3-1.9 4.5-3.5-4-0.2-4.5 1.3-3-0.2-2.6-2.2-1.6-1.5 0.6-3.2-3.1-2.9-1.6 2-6 1.8-2.2-0.9-5.4 1.3-5.2 1-1.7-1.3-5.4-2.6-2.9 5.5 1.2 1 1.7-0.1 0.8 1.8 4.1 0.2 7.7-1.8 3.6 1.6 4.7-0.2 2.8 1.2 1.9-0.1 2.4 0.9 1.4 1-1.6 1.9 2.5 0.2-0.8-1-3.4-1.1-0.3-0.1-0.9z" id="MW" name="Malawi">
</path>
    </svg>