<svg width="40" height="40" xmlns="http://www.w3.org/2000/svg" fill="#e6e6e6"  
    viewBox="1044.23 602.8299999999999 90.13999999999987 93.24000000000001" preserveAspectRatio="xMidYMid meet">
        <path d="M1116.2 614.3l4.6-1.4 3.6 0.3 2.2 1.5 0 0.5-3.2 1.5-1.7 0-3.7 2.5-2-2.7-8.7 2.3-4.2 0.2-0.8 22.9-5.5 0.2-0.6 18.7-1.1 23.7-5 3.3-2.9 0.5-3.4-1.2-2.5-0.5-0.8-2.7-2-1.8-2.8 3.2-3.9-4.9-2-4.6-1-6.3-1.2-4.6-1.6-9.9 0.1-7.7-0.6-3.5-2.1-2.7-2.8-5.3-2.8-7.7-1.1-4-4.4-6.3-0.3-4.9 2.7-1.2 3.4-1.1 3.6 0.2 3.3 2.9 0.8-0.5 22.7-0.2 3.8 3 13.5 0.9 10.4-2.6z" id="NA" name="Namibia">
</path>
    </svg>