<svg width="40" height="40" xmlns="http://www.w3.org/2000/svg" fill="#e6e6e6"  
    viewBox="979.31 342.41 104.27999999999997 93.28000000000009" preserveAspectRatio="xMidYMid meet">
        <path d="M1068.6 355l1.6 10 2.2 1.7 0.1 2 2.4 2.2-1.2 2.8-1.8 13-0.2 8.4-7 6-2.3 8.5 2.4 2.4 0 4.1 3.7 0.1-0.6 3.1-1.5 0.3-0.2 2.1-1 0.1-3.9-7-1.4-0.3-4.3 3.6-4.4-1.9-3-0.3-1.6 0.9-3.3-0.2-3.3 2.7-2.9 0.2-6.8-3.3-2.7 1.5-2.9-0.1-2.1-2.4-5.6-2.4-6.1 0.8-1.4 1.3-0.8 3.7-1.6 2.6-0.4 5.8-4.3-3.7-2 0-1.9 1.9 0.1-4.4-6.5-1.5-0.2-3.1-3.1-4.2-0.8-2.9 0.5-3.1 3.6-0.3 2-2.3 7.7-0.5 5-1 0.4-4 3.1-4.3-0.1-14.8 7.8-2.8 16-12.6 18.8-12.3 8.8 2.8 3.2 3.5 3.8-2.4z" id="NE" name="Niger">
</path>
    </svg>