<svg width="40" height="40" xmlns="http://www.w3.org/2000/svg" fill="#e6e6e6"  
    viewBox="490.24 402.64000000000004 32.120000000000005 33.11999999999995" preserveAspectRatio="xMidYMid meet">
        <path d="M519.6 405.5l-0.5 0.7-0.5 1.4 0.4 2.3-1.5 2.2-0.8 2.6-0.5 2.8 0.2 1.7-0.1 2.9-0.9 0.6-0.7 2.8 0.2 1.7-1.2 1.6 0.1 1.7 0.8 1.1-1.4 1.4-1.7-0.5-0.8-1.3-1.8-0.5-1.3 0.8-3.6-1.7-0.9 0.8-1.8-2-2.5-2.6-1.1-2.1-2.2-2.1-2.5-2.9 0.7-1 0.8 1 0.5-0.4 1.8-0.3 0.8-1.5 0.8 0 0.2-3.2 1.3-0.1 1.2 0 1.4-1.7 1.5 1.3 0.6-0.8 1.2-0.8 2.1-1.7 0.2-1.4 0.5 0.1 0.9-1.5 0.6-0.2 0.9 1 1.1 0.2 1.3-0.8 1.4 0 2-0.8 0.9-0.9 1.9 0.1z" id="NI" name="Nicaragua">
</path>
    </svg>