<svg width="40" height="40" xmlns="http://www.w3.org/2000/svg" fill="#e6e6e6"  
    viewBox="514.2800000000002 436.8799999999999 38.639999999999645 21.839999999999975" preserveAspectRatio="xMidYMid meet">
        <path d="M549.3 446.2l-0.7 0.9 1.1 3.8-1.1 1.9-1.8-0.5-0.9 3.1-1.8-1.8-1-3.5 1.4-1.7-1.4-0.4-0.9-2.1-2.8-1.8-2.4 0.4-1.3 2.2-2.4 1.6-1.2 0.2-0.6 1.4 2.5 3.5-1.6 0.8-0.8 0.9-2.7 0.4-0.8-3.9-0.8 1.1-1.8-0.4-1-2.5-2.3-0.5-1.5-0.7-2.4 0-0.2 1.4-0.6-1 0.3-1.3 0.6-1.3-0.2-1.1 0.9-0.8-1.1-0.9 0.1-2.6 2.2-0.6 1.9 2.3-0.2 1.4 2.2 0.3 0.6-0.6 1.5 1.6 2.8-0.5 2.5-1.6 3.5-1.3 2-1.9 3.1 0.4-0.2 0.6 3.1 0.2 2.4 1.2 1.8 1.9 2 1.8z" id="PA" name="Panama">
</path>
    </svg>