<svg width="40" height="40" xmlns="http://www.w3.org/2000/svg" fill="#e6e6e6"  
    viewBox="513.5600000000002 490.45999999999987 98.27999999999997 140.88000000000005" preserveAspectRatio="xMidYMid meet">
        <path d="M590.5 529.4l-5.1-0.3-0.8 1-4.6 1.2-6.3 4.4-0.3 3-1.4 2.2 0.7 3.5-3.4 1.8 0.2 2.8-1.5 1.1 2.6 5.8 3.3 3.9-1 2.8 3.8 0.3 2.3 3.5 5 0.1 4.4-3.7 0.1 9.7 2.6 0.7 3.2-1.1 5.5 10.4-1.1 2.1 0 4.6 0.3 5.4-1.9 3.2 1.2 2.4-1.1 2.2 2.9 5.4-2.9 6.9-1.1 3.3-2.8 1.6-5.9-3.7-0.8-2.6-11.7-6.4-10.7-7.1-4.7-3.9-2.8-5.3 0.8-1.9-5.4-8.4-6.4-11.8-6-12.8-2.4-3-2-4.7-4.6-4.2-4.1-2.6 1.7-2.8-3-6.2 1.7-4.5 4.4-4 0.7 2.7-1.6 1.5 0.3 2.3 2.3-0.5 2.3 0.7 2.5 3.3 3.1-2.7 0.9-4.3 3.4-5.6 6.7-2.5 6.1-6.8 1.7-4.1-0.8-4.9 1.5-0.6 3.8 3 1.8 3.1 2.6 1.6 3.5 6.7 4.2 0.9 3.1-1.7 2.1 1.1 3.4-0.6 4.4 3-3.5 6.6 1.7 0.1 2.9 3.4z" id="PE" name="Peru">
</path>
    </svg>