<svg width="40" height="40" xmlns="http://www.w3.org/2000/svg" fill="#e6e6e6"  
    viewBox="1048.8900000000003 147.29000000000002 60.12000000000012 45.82000000000002" preserveAspectRatio="xMidYMid meet">
        <path d="M1079.9 154.8l5.9 0.7 8.8-0.1 2.5 0.7 1.4 1.9 0.6 2.7 1.7 2.3 0.4 2.4-2.8 1.3 1.9 2.8 0.5 2.8 3.2 5.4-0.3 1.7-2.3 0.7-3.8 5.2 1.6 2.8-1.1-0.4-5-2.4-3.5 0.9-2.4-0.6-2.8 1.3-2.7-2.2-1.9 0.9-0.3-0.4-2.6-3.1-3.7-0.3-0.7-2-3.4-0.7-0.6 1.6-2.8-1.3 0.2-1.7-3.7-0.5-2.5-2-2.4-3.9 0.2-2.2-1.5-3.3-1.9-2.1 1.2-1.7-1.4-3.1 3.1-1.8 7.1-2.8 5.8-2 4.8 1 0.6 1.5 4.6 0z" id="PL" name="Poland">
</path>
    </svg>