<svg width="40" height="40" xmlns="http://www.w3.org/2000/svg" fill="#e6e6e6"  
    viewBox="605.31 381.40999999999997 17.88000000000011 6.78000000000003" preserveAspectRatio="xMidYMid meet">
        <path class="Puerto Rico" d="M 607.1 385.9 606.8 385.7 606.9 385.5 607.2 385.5 607.3 385.6 607.1 385.9 Z" id="PR">
</path><path class="Puerto Rico" d="M 621.7 385.4 621.5 385.4 620.6 385.7 620 385.7 620.2 385.5 620.6 385.3 621 385.2 621.6 385.3 621.7 385.4 Z" id="PR">
</path><path class="Puerto Rico" d="M 612.2 383 612.8 383.1 613.4 383.1 613.7 383.2 614.3 383.1 614.6 383.2 615 383.1 615.2 383.2 615.7 383.1 616.1 383.2 616.4 383.2 617.2 383.4 617.2 383.2 617.8 383.4 617.9 383.3 618.7 383.4 618.9 383.6 619.1 383.6 619.7 383.9 619.9 383.8 619.8 384.5 620 384.8 619.1 385.1 618.8 385.5 618.5 386.1 618.2 386.3 617.9 386.4 617.5 386.4 616.9 386.5 616.6 386.7 615.9 386.6 615.7 386.4 615.2 386.6 614.9 386.3 614.2 386.5 613.3 386.4 613 386.5 612.4 386.6 612.2 386.7 612 386.5 611.6 386.4 611.3 386.6 610.7 386.5 611 385.8 611 385.4 611.2 385 611 384.4 610.8 384.3 610.7 383.9 611.1 383.7 611.3 383.6 611.3 383.1 611.7 382.9 612.2 383 Z" id="PR">
</path>
    </svg>