<svg width="40" height="40" xmlns="http://www.w3.org/2000/svg" fill="#e6e6e6"  
    viewBox="932.8299999999999 227.13000000000005 23.840000000000146 41.63999999999993" preserveAspectRatio="xMidYMid meet">
        <path d="M946.9 263.7l-2.2 1.6-2.8-0.9-2.7 0.7 0.9-5-0.3-3.9-2.4-0.6-1.1-2.4 0.5-4.2 2.2-2.3 0.5-2.6 1.2-3.8 0-2.7-0.9-2.3-0.2-2.2 1.9-1.6 2.2-0.9 1.2 3.1 3 0 0.9-0.8 3.1 0.2 1.3 3.2-2.4 1.7-0.3 5-0.8 0.9-0.3 3.1-2.3 0.5 2 3.8-1.6 4.2 1.8 1.9-0.8 1.7-2 2.4 0.4 2.2z" id="PT" name="Portugal">
</path>
    </svg>