<svg width="40" height="40" xmlns="http://www.w3.org/2000/svg" fill="#e6e6e6"  
    viewBox="1083.5500000000004 188.25 58.19999999999959 38.299999999999926" preserveAspectRatio="xMidYMid meet">
        <path d="M1118.9 193.1l1.6 0.7 1.8 1.8 2 2.6 3.4 3.8 0.6 2.7-0.2 2.7 1.3 2.9 2.4 1.2 2.3-1.1 2.4 1.1 0.4 1.7-2.3 1.3-1.6-0.6-0.4 7.7-3.1-0.7-4-2.3-5.9 1.5-2.3 1.6-7.6-0.4-4-0.9-1.9 0.4-1.8-2.6-1-1.1 1-1.1-1.3-0.7-1.5 1.4-3.1-1.9-0.7-2.6-3.2-1.4-0.8-2.1-3-2.4 3.9-1.2 2.6-4.3 1.9-4.2 2.9-1.3 2-1.4 3.2 0.7 3.2 0 2.5 1.6 1.6-1 3.6-0.6 1-1.5 2.1 0z" id="RO" name="Romania">
</path>
    </svg>