<svg width="40" height="40" xmlns="http://www.w3.org/2000/svg" fill="#e6e6e6"  
    viewBox="1079.0199999999995 203.51999999999998 27.860000000000582 29.760000000000048" preserveAspectRatio="xMidYMid meet">
        <path d="M1102 218.2l-1.1 1.4 0.7 2.4 2.8 2.7-1.8 2-0.6 2 0.6 0.8-0.7 0.8-2.4 0.2-1.7 0.3-0.3-0.5 0.6-0.7 0.4-1.6-0.7 0.1-1.1-1.2-0.9-0.3-0.8-1-1-0.4-0.8-0.9-0.9 0.4-0.5 2.1-1.2 0.4 0.4-0.5-2.1-1.3-1.7-0.7-0.9-0.9-1.4-1.1 1.1-0.3 0.5-2.9-2.7-2.5 1.1-2.8-1.9 0.1 1.7-2.4-1.7-1.8-1.5-2.5 3.7-1.6 3.2 0.3 3 2.4 0.8 2.1 3.2 1.4 0.7 2.6 3.1 1.9 1.5-1.4 1.3 0.7-1 1.1 1 1.1z" id="RS" name="Serbia">
</path>
    </svg>