<svg width="40" height="40" xmlns="http://www.w3.org/2000/svg" fill="#e6e6e6"  
    viewBox="1067.52 181.91999999999996 33.3599999999999 16.860000000000014" preserveAspectRatio="xMidYMid meet">
        <path d="M1098.1 187.7l-1.2 1.7-0.7 2.5-1 0.6-5.5-1.9-1.6 0.4-1 1.5-2.3 0.8-0.6-0.4-2.3 0.9-1.9 0.2-0.3 1.3-4.1 0.7-1.9-0.6-2.7-1.7-0.7-2.1 0.3-0.8 0.6-1.4 2.2 0.1 1.6-0.6 0.1-0.6 0.9-0.3 0.2-1.4 1.1-0.3 0.7-1.1 1.5 0 0.3 0.4 1.9-0.9 2.7 2.2 2.8-1.3 2.4 0.6 3.5-0.9 5 2.4z" id="SK" name="Slovakia">
</path>
    </svg>