<svg width="40" height="40" xmlns="http://www.w3.org/2000/svg" fill="#e6e6e6"  
    viewBox="1052.1299999999997 341.2300000000001 78.44000000000028 123.24000000000001" preserveAspectRatio="xMidYMid meet">
        <path d="M1119.2 376.1l1.1 25.5-4.8-0.5-2.5 4.8-1.3 3.9 1.2 1.5-1.8 2 0.7 2.7-1.4 2.6-0.5 2.4 1.9-0.4 1.3 2.5 0.1 3.7 2.1 1.9 0 1.6-3.6 1.1-2.8 2.6-4 7-5.2 3-5.5-0.4-1.6 0.6 0.6 2.2-2.9 2.3-2.4 2.5-7.1 2.4-1.4-1.4-1-0.2-1 1.7-4.6 0.5 0.8-1.8-1.8-4.4-0.8-2.6-2.5-1.1-3.4-3.8 1.2-3 2.6 0.6 1.6-0.4 3.2 0-3.2-5.8 0.2-4.3-0.5-4.2-2.3-4.1 0.6-3.1-3.7-0.1 0-4.1-2.4-2.4 2.3-8.5 7-6 0.2-8.4 1.8-13 1.2-2.8-2.4-2.2-0.1-2-2.2-1.7-1.6-10 5.5-3.5 22.5 12.3 22.6 12.3z" id="TD" name="Chad">
</path>
    </svg>