<svg width="40" height="40" xmlns="http://www.w3.org/2000/svg" fill="#e6e6e6"  
    viewBox="1520.64 361.2399999999999 67.82000000000016 113.5200000000001" preserveAspectRatio="xMidYMid meet">
        <path d="M1577.5 410.2l-5.3-0.9-7.1 1.2-3.1 5.3 2.1 7.8-5.3-3-4.8 0.2 0.3-5.1-4.9 0 0.2 7.1-2.2 9.4-1.4 5.7 0.7 4.6 3.7 0.2 2.7 5.9 1.3 5.5 3.4 3.7 3.4 0.7 3.1 3.4-1.7 2.6-3.7 0.8-0.6-3.3-4.8-2.8-0.9 1.1-2.3-2.4-1.2-3.2-3.2-3.6-2.9-3.1-0.7 3.8-1.3-3.6 0.4-4 1.2-6.1 2.2-6.6 2.6-6-2.7-5.9-0.2-3-1-3.6-4.3-5.1-1.8-3.2 1.8-1.2 1.4-5.5-2.9-4.3-4.1-4.7-3.5-5.6 2.2-1.2 1.5-6.9 3.9-0.3 2.8-2.8 3-1.5 2.7 2 0.9 3.9 3.8 0.3-0.4 6.7 1 5.8 5.3-3.8 1.9 1.1 3.2-0.2 0.8-2.2 4.3 0.4 5 5.2 1.3 6.4 5.3 5.6 0.4 5.4-1.5 2.9z" id="TH" name="Thailand">
</path>
    </svg>