<svg width="40" height="40" xmlns="http://www.w3.org/2000/svg" fill="#e6e6e6"  
    viewBox="1022.1900000000005 257.59 30.52000000000021 54.12000000000006" preserveAspectRatio="xMidYMid meet">
        <path d="M1048.2 289.1l-0.1 4.9-2.6 1.8-1.6 2.1-3.6 2.5 0.6 2.6-0.4 2.8-2.6 1.4-2.6-11.5-3.4-2.6-0.1-1.5-4.5-3.9-0.6-4.8 3.2-3.6 1.1-5.3-1-6.1 1-3.3 5.7-2.5 3.7 0.7 0 3.3 4.4-2.4 0.4 1.2-2.5 3.2 0.1 2.9 1.9 1.6-0.5 5.6-3.5 3.2 1.2 3.5 2.8 0.1 1.4 3.1 2.1 1z" id="TN" name="Tunisia">
</path>
    </svg>