<svg width="40" height="40" xmlns="http://www.w3.org/2000/svg" fill="#e6e6e6"  
    viewBox="1147.1199999999997 501.42000000000013 73.55999999999995 82.55999999999977" preserveAspectRatio="xMidYMid meet">
        <path d="M1167 508.4l-0.2 3.9-1.1 4.5 1.6 2.5 2.5-1.5 3.3-0.4 0.7 0.8 3.3-1.6-2.3-2.2 1.9-2.9 2.8-2.9 20.5 13.1 0.3 3.7 8.1 6.4-2.8 8 0.3 3.6 3.5 2.3 0.2 1.7-1.7 3.9 0.3 1.9-0.4 3.1 1.8 4 2.2 6.4 2 1.4-4.6 3.7-6.2 2.5-3.4-0.1-2.1 1.9-3.9 0.2-1.5 0.8-6.7-1.8-2.2 0.2 0.1-0.1-1.8-2.4-0.3-6.8-2.9-3.4-0.4 1.2-1-1.7-5.5-1.2-3.2-1.9-3.6-1.1-2.2-1.1-0.3-0.2-2.7-6.6-0.4-3.9-4.5-4.4 1.4-2.4-1.1-2.6 0.2-2.7-1-0.9 0.3-2.8 0.6-0.1 2-2.3 2.3-3.4 1.4-1.3 0-2.1-1.2-1.5-0.3-2.5 1.6-0.8 0.3-3.8-2.2-3.6 2-0.8 6.2 0.1z" id="TZ" name="Tanzania">
</path>
    </svg>