<svg width="40" height="40" xmlns="http://www.w3.org/2000/svg" fill="#e6e6e6"  
    viewBox="1102.3700000000006 548.0700000000002 79.55999999999904 75.65999999999997" preserveAspectRatio="xMidYMid meet">
        <path d="M1162.1 556.8l0.3 0.2 2.2 1.1 3.6 1.1 3.2 1.9 2.6 2.9 1.3 5.4-1 1.7-1.3 5.2 0.9 5.4-1.8 2.2-2 6 2.9 1.6-17.2 5.3 0.4 4.6-4.3 0.9-3.3 2.5-0.8 2.2-2 0.6-5.1 5.2-3.2 4.2-1.9 0.1-1.8-0.7-6.2-0.7-1-0.5 0-0.5-2.2-1.5-3.6-0.3-4.6 1.4-3.6-4-3.6-5.2 0.8-20.5 11.7 0.1-0.4-2.2 0.9-2.4-0.9-3 0.7-3.1-0.6-2 1.9 0.1 0.3 2 2.7-0.1 3.5 0.6 1.9 2.9 4.4 0.9 3.5-2 1.2 3.3 4.3 0.9 2 2.8 2.2 3.5 4.3 0-0.2-6.9-1.6 1.2-3.9-2.5-1.5-1.2 0.9-6.4 1.1-7.6-1.2-2.8 1.7-4.1 1.5-0.8 7.7-1.1 0.9 0.3-0.3 1.4 1.9 0.5 1.2 1.3 1-0.3-0.5-1.1z" id="ZM" name="Zambia">
</path>
    </svg>