<svg width="40" height="40" xmlns="http://www.w3.org/2000/svg" fill="#e6e6e6"  
    viewBox="1123.26 597.0599999999997 51.379999999999654 52.08000000000027" preserveAspectRatio="xMidYMid meet">
        <path d="M1159.4 644.7l-2.9-0.7-1.9 0.8-2.7-1.1-2.2 0-3.4-2.9-4.3-1-1.5-4.1 0.1-2.3-2.3-0.7-6.1-7-1.6-3.7-1.1-1.2-1.9-5.1 6.2 0.7 1.8 0.7 1.9-0.1 3.2-4.2 5.1-5.2 2-0.6 0.8-2.2 3.3-2.5 4.3-0.9 0.2 2.4 4.7-0.1 2.6 1.3 1.1 1.6 2.7 0.5 2.8 2-0.4 8.2-1.3 4.4-0.4 4.8 0.8 1.9-0.9 3.8-0.8 0.6-1.7 4.6-6.2 7.3z" id="ZW" name="Zimbabwe">
</path>
    </svg>